<svg width="200" height="47" viewBox="0 0 218 47" fill="none" xmlns="http://www.w3.org/2000/svg">
<path d="M93.4328 34.3031C91.8242 34.3031 90.3057 34.3031 88.7378 34.3031C88.7378 30.3098 88.7378 26.3412 88.7378 22.342C88.2074 22.342 87.7293 22.342 87.2003 22.342C87.2003 26.3324 87.2003 30.3025 87.2003 34.3002C85.6324 34.3002 84.1139 34.3002 82.5576 34.3002C82.5576 28.8212 82.5576 23.348 82.5576 17.8457C88.2263 17.8457 93.8833 17.8457 99.581 17.8457C99.581 23.3204 99.581 28.7935 99.581 34.2987C98.0639 34.2987 96.5454 34.2987 94.9557 34.2987C94.9557 30.317 94.9557 26.3353 94.9557 22.3318C94.4195 22.3318 93.953 22.3318 93.4343 22.3318C93.4328 26.3135 93.4328 30.2821 93.4328 34.3031Z" fill="#030303"/>
<path d="M25.8366 20.2213C27.4249 19.5439 29.0117 18.8664 30.645 18.1687C30.7642 18.3838 30.8673 18.5684 30.9691 18.753C31.0097 18.926 31.0315 19.1063 31.0955 19.2706C31.8002 21.0673 32.5123 22.8612 33.2214 24.6551C33.1328 24.6696 33.0368 24.6682 32.9555 24.7016C31.1144 25.4575 29.2718 26.2091 27.438 26.9795C27.1343 27.1075 26.8625 27.3154 26.5763 27.4854C26.646 27.8343 26.6736 28.1978 26.7913 28.5292C27.483 30.467 28.1965 32.3961 28.9013 34.328C27.7417 34.8048 26.5806 35.2773 25.4239 35.7585C24.5332 36.1292 23.6468 36.5115 22.7574 36.8895L22.7313 36.9011L22.7124 36.8793C22.663 36.8778 22.6121 36.8749 22.5627 36.8735C22.4813 36.7223 22.3782 36.5798 22.3215 36.4199C21.778 34.924 21.2418 33.4253 20.7042 31.928C20.556 31.4831 20.3743 31.0456 20.2711 30.5906C20.1578 30.0919 19.9006 30.0396 19.4981 30.2358C19.4007 30.2838 19.3019 30.3303 19.2016 30.371C17.3518 31.1197 15.5005 31.8684 13.6493 32.617C13.2773 31.5602 12.8994 30.5062 12.5362 29.4479C12.1961 28.4565 11.8706 27.4593 11.5103 26.3792C13.5911 25.4837 15.6633 24.5911 17.7907 23.6767C17.3925 22.5487 17.0031 21.4453 16.6151 20.3419C16.2968 19.4363 15.9946 18.5248 15.6531 17.6293C15.534 17.3182 15.5892 17.1845 15.8885 17.0537C17.7151 16.2541 19.5344 15.4371 21.3566 14.626C21.4583 14.6332 21.5601 14.642 21.6618 14.6492L21.6632 14.6521C22.4276 16.7571 23.1905 18.8621 23.9708 21.0121C24.6465 20.7243 25.2408 20.4728 25.8366 20.2213Z" fill="#E78424"/>
<path d="M53.0985 29.8068C54.6344 29.8068 56.1384 29.8068 57.6773 29.8068C57.6773 29.3227 57.6773 28.8604 57.6773 28.3429C56.6673 28.3429 55.6589 28.3429 54.6228 28.3429C54.6228 26.8238 54.6228 25.3599 54.6228 23.8655C57.189 23.8655 59.7567 23.8655 62.3476 23.8655C62.3476 27.3515 62.3476 30.8127 62.3476 34.3002C57.6991 34.3002 53.0767 34.3002 48.4165 34.3002C48.4165 28.8212 48.4165 23.3465 48.4165 17.8442C53.0433 17.8442 57.6686 17.8442 62.3331 17.8442C62.3331 19.2979 62.3331 20.7618 62.3331 22.2766C59.283 22.2766 56.2052 22.2766 53.0985 22.2766C53.0985 24.8089 53.0985 27.2904 53.0985 29.8068Z" fill="#020202"/>
<path d="M79.4162 34.2987C77.8643 34.2987 76.3472 34.2987 74.7909 34.2987C74.7909 32.3158 74.7909 30.3606 74.7909 28.3676C73.2404 28.3676 71.7277 28.3676 70.1583 28.3676C70.1583 30.333 70.1583 32.3028 70.1583 34.2987C68.5846 34.2987 67.0661 34.2987 65.5127 34.2987C65.5127 28.8168 65.5127 23.3421 65.5127 17.8413C70.1453 17.8413 74.7677 17.8413 79.4147 17.8413C79.4162 23.3247 79.4162 28.7877 79.4162 34.2987ZM70.1714 23.7986C71.7335 23.7986 73.2433 23.7986 74.7589 23.7986C74.7589 23.2912 74.7589 22.8261 74.7589 22.3362C73.2201 22.3362 71.7059 22.3362 70.1714 22.3362C70.1714 22.8333 70.1714 23.3014 70.1714 23.7986Z" fill="#020202"/>
<path d="M116.703 17.8354C116.703 19.3357 116.703 20.7865 116.703 22.294C113.62 22.294 110.544 22.294 107.427 22.294C107.427 22.8115 107.427 23.2738 107.427 23.7971C109.438 23.7971 111.478 23.7971 113.557 23.7971C113.557 25.3322 113.557 26.8077 113.557 28.3268C111.514 28.3268 109.487 28.3268 107.424 28.3268C107.424 28.8298 107.424 29.2906 107.424 29.8096C110.499 29.8096 113.576 29.8096 116.685 29.8096C116.685 31.3287 116.685 32.7912 116.685 34.2914C112.058 34.2914 107.421 34.2914 102.753 34.2914C102.753 28.8095 102.753 23.3334 102.753 17.8354C107.402 17.8354 112.026 17.8354 116.703 17.8354Z" fill="#030303"/>
<path d="M211.167 33.5443C211.167 33.7841 211.167 33.9993 211.167 34.2537C208.331 34.2537 205.509 34.2537 202.653 34.2537C202.653 34.0255 202.653 33.7987 202.653 33.5297C203.133 33.476 203.636 33.4483 204.127 33.3597C205.063 33.191 205.39 32.7186 205.097 31.8115C204.794 30.868 204.388 29.9565 204.003 29.0407C203.958 28.9346 203.759 28.8343 203.631 28.8343C201.761 28.8212 199.889 28.8212 198.019 28.8343C197.887 28.8357 197.679 28.9244 197.636 29.0276C197.227 29.9929 196.806 30.9567 196.472 31.9496C196.203 32.752 196.514 33.2099 197.344 33.3538C197.874 33.4454 198.416 33.4701 198.975 33.5254C198.975 33.758 198.975 33.9877 198.975 34.2551C193.688 34.2551 188.398 34.2551 183.1 34.2551C183.1 34.0138 183.1 33.7856 183.1 33.5443C183.523 33.5065 183.921 33.4934 184.311 33.4294C185.129 33.2942 185.687 32.8232 185.816 31.9975C185.957 31.0875 186.078 30.163 186.082 29.2442C186.096 26.5927 186.054 23.9411 186.021 21.2896C186.016 20.929 185.961 20.5642 185.886 20.2109C185.652 19.1221 185.082 18.6453 183.965 18.5624C183.678 18.5406 183.392 18.5188 183.096 18.497C183.096 18.2382 183.096 18.01 183.096 17.7658C186.005 17.7658 188.888 17.7658 191.78 17.7658C191.78 18.0173 191.78 18.247 191.78 18.4984C191.47 18.5217 191.184 18.5435 190.898 18.5653C189.764 18.6496 189.164 19.1584 188.982 20.2792C188.872 20.9567 188.808 21.6486 188.802 22.3348C188.782 24.7872 188.78 27.241 188.802 29.6934C188.808 30.3796 188.873 31.0715 188.985 31.749C189.17 32.8683 189.766 33.3829 190.898 33.4701C191.331 33.5036 191.768 33.4963 192.202 33.5108C193.513 33.5545 194.423 32.9541 194.952 31.7708C195.683 30.1353 196.415 28.4999 197.124 26.8543C198.457 23.7638 199.77 20.6645 201.107 17.5753C201.191 17.382 201.412 17.2483 201.569 17.0854C201.731 17.2439 201.96 17.3718 202.043 17.5637C204.018 22.1109 205.975 26.6654 207.941 31.2154C208.071 31.5135 208.238 31.7969 208.398 32.0804C208.915 32.9933 209.684 33.4847 210.752 33.4672C210.842 33.4658 210.933 33.4745 211.023 33.4861C211.058 33.4934 211.09 33.5138 211.167 33.5443ZM203.312 27.3995C202.476 25.4559 201.665 23.5748 200.819 21.6079C199.968 23.5893 199.157 25.4733 198.329 27.3995C199.991 27.3995 201.597 27.3995 203.312 27.3995Z" fill="#030303"/>
<path d="M118.64 25.9632C118.812 22.3231 120.297 19.4462 123.665 17.8166C126.794 16.3033 130.387 17.1799 132.736 19.8722C135.992 23.6067 135.712 29.4245 132.112 32.8189C128.431 36.2903 122.742 35.4123 120.011 30.9421C119.079 29.4201 118.632 27.76 118.64 25.9632ZM131.668 26.0417C131.717 26.0315 131.765 26.0213 131.814 26.0126C131.575 24.8671 131.432 23.6896 131.072 22.5848C130.531 20.929 129.534 19.6062 127.699 19.2282C125.544 18.7834 123.684 19.8678 122.747 22.0993C121.9 24.1155 121.738 26.2074 122.248 28.3298C122.42 29.0436 122.667 29.7603 123.004 30.4115C123.795 31.935 125.014 32.8567 126.81 32.8625C128.606 32.8683 129.819 31.9481 130.64 30.4421C131.386 29.0756 131.654 27.5855 131.668 26.0417Z" fill="#030303"/>
<path d="M165.88 34.2624C165.88 34.0095 165.88 33.7958 165.88 33.5428C166.191 33.5196 166.493 33.4992 166.795 33.473C167.887 33.3771 168.491 32.8625 168.677 31.7766C168.79 31.118 168.866 30.4435 168.866 29.7763C168.866 26.9081 168.836 24.04 168.802 21.1718C168.798 20.8302 168.741 20.4842 168.664 20.1499C168.432 19.1235 167.86 18.6496 166.801 18.5668C166.513 18.545 166.226 18.5261 165.902 18.5028C165.902 18.2702 165.902 18.0449 165.902 17.7978C165.929 17.7861 165.976 17.7498 166.021 17.7512C169.125 17.7687 172.233 17.6858 175.331 17.8385C178.089 17.9737 180.487 19.016 182.046 21.4727C183.983 24.5255 183.862 30.4741 179.628 32.9381C178.117 33.8176 176.473 34.2362 174.742 34.2551C171.807 34.2842 168.868 34.2624 165.88 34.2624ZM171.589 19.2282C171.586 19.2747 171.575 19.3634 171.575 19.4506C171.573 23.0485 171.572 26.645 171.578 30.2429C171.578 30.6412 171.611 31.041 171.656 31.4379C171.759 32.374 172.144 32.7564 173.083 32.832C173.535 32.8683 173.99 32.8669 174.443 32.8552C176.998 32.7913 178.84 31.5193 179.58 29.2297C180.244 27.1742 180.256 25.0794 179.65 23.0107C179.028 20.884 177.605 19.5364 175.391 19.2558C174.163 19.1017 172.898 19.2282 171.589 19.2282Z" fill="#020202"/>
<path d="M163.462 29.6759C163.726 29.6759 163.956 29.6759 164.241 29.6759C164.139 31.211 164.039 32.7243 163.937 34.2623C159.181 34.2623 154.466 34.2623 149.723 34.2623C149.723 34.021 149.723 33.7928 149.723 33.5355C150.047 33.5122 150.352 33.4991 150.654 33.4686C151.696 33.3654 152.239 32.9133 152.463 31.8957C152.572 31.4029 152.654 30.8912 152.657 30.3882C152.674 27.4633 152.674 24.537 152.657 21.6122C152.654 21.1092 152.572 20.5975 152.462 20.1047C152.239 19.1191 151.684 18.6612 150.68 18.5681C150.375 18.5405 150.07 18.5245 149.731 18.5013C149.731 18.2614 149.731 18.0346 149.731 17.7744C154.153 17.7744 158.575 17.7744 163.023 17.7744C163.123 19.2819 163.224 20.7792 163.325 22.3129C163.057 22.3129 162.809 22.3129 162.517 22.3129C162.439 22.0192 162.336 21.7125 162.276 21.3985C162.032 20.1076 161.25 19.3589 159.958 19.2586C158.463 19.1409 156.961 19.122 155.432 19.0595C155.432 21.038 155.432 22.9176 155.432 24.8598C156.326 24.7944 157.199 24.7784 158.055 24.6548C159.167 24.4934 159.54 24.0617 159.681 22.9438C159.726 22.5847 159.742 22.2227 159.772 21.8259C159.996 21.8259 160.224 21.8259 160.489 21.8259C160.489 24.2783 160.489 26.7539 160.489 29.2354C160.245 29.2354 160.017 29.2354 159.778 29.2354C159.739 28.7993 159.711 28.385 159.662 27.9751C159.552 27.0679 159.151 26.5839 158.239 26.437C157.331 26.2902 156.407 26.2481 155.403 26.1507C155.403 26.5388 155.39 26.8397 155.404 27.1392C155.473 28.5144 155.484 29.8968 155.643 31.2619C155.753 32.2184 156.345 32.7476 157.288 32.7883C158.498 32.8406 159.716 32.8057 160.925 32.7272C162.217 32.6444 162.943 31.8593 163.224 30.6252C163.299 30.3112 163.382 29.9972 163.462 29.6759Z" fill="#020202"/>
<path d="M135.144 18.5031C135.134 18.3766 135.123 18.2865 135.12 18.1978C135.118 18.0728 135.119 17.9463 135.119 17.8388C135.173 17.7995 135.2 17.7617 135.227 17.7617C138.203 17.7748 141.18 17.7385 144.153 17.83C145.596 17.8751 146.934 18.4086 147.947 19.5018C149.899 21.6068 149.316 24.9256 146.776 26.3269C145.667 26.9389 144.464 27.1628 143.214 27.1846C142.437 27.1977 141.66 27.1875 140.824 27.1875C140.828 28.8346 140.698 30.4467 141.083 32.0298C141.304 32.9398 141.876 33.3716 142.838 33.4675C143.159 33.4995 143.483 33.5126 143.828 33.5359C143.828 33.7903 143.828 34.0199 143.828 34.2714C140.937 34.2714 138.054 34.2714 135.145 34.2714C135.145 34.0316 135.145 33.8033 135.145 33.5402C135.474 33.517 135.796 33.5024 136.117 33.4675C137.1 33.3614 137.659 32.9253 137.86 31.9571C138.009 31.2346 138.085 30.4845 138.091 29.7461C138.11 27.0044 138.094 24.2612 138.067 21.5195C138.063 21.0355 137.985 20.5412 137.87 20.0687C137.634 19.0991 137.105 18.6688 136.117 18.5714C135.811 18.5409 135.504 18.5278 135.144 18.5031ZM140.828 25.7542C141.542 25.7542 142.209 25.7542 142.877 25.7542C144.769 25.7542 145.863 24.7875 146.087 22.9209C146.289 21.2404 145.503 19.6646 144.109 19.339C143.057 19.0933 141.94 19.1267 140.83 19.0337C140.828 21.3495 140.828 23.5082 140.828 25.7542Z" fill="#030303"/>
<path d="M38.6926 39.3897C37.7379 40.5584 36.5638 41.3144 34.9987 41.2199C33.2448 41.1138 31.9792 40.2168 31.2976 38.6148C30.606 36.9896 30.8312 35.4225 32.0373 34.1127C33.2245 32.8233 34.7154 32.4657 36.401 33.0035C36.5027 33.0355 36.6117 33.0413 36.7178 33.0602C36.8384 33.1358 36.9547 33.2187 37.0796 33.2856C38.5153 34.0429 39.5717 35.8165 39.2302 37.6496C39.1213 38.2412 38.8757 38.8096 38.6926 39.3897Z" fill="#E88422"/>
<path d="M37.5442 29.3605C35.6958 27.7047 35.4459 25.2145 36.9484 23.4381C38.4684 21.6413 41.1319 21.3593 42.9527 22.874C44.4233 24.0966 44.7531 25.6928 44.2242 27.4968C44.1966 27.5739 44.1704 27.6509 44.1428 27.728L44.1515 27.7134C44.1036 27.7643 44.0367 27.8065 44.0091 27.8675C43.0283 29.9376 40.5347 30.7633 38.5091 29.8911C38.2678 29.7864 38.0208 29.6934 37.7767 29.596L37.7941 29.5974C37.752 29.5567 37.7098 29.5175 37.6691 29.4768L37.6909 29.4855C37.6401 29.4433 37.5921 29.4026 37.5442 29.3605Z" fill="#E88422"/>
<path d="M26.5747 27.4837C26.861 27.3136 27.1327 27.1057 27.4364 26.9778C29.2717 26.2073 31.1128 25.4543 32.9539 24.6998C33.0353 24.6664 33.1312 24.6679 33.2198 24.6548C33.6267 25.0531 34.0336 25.4514 34.4405 25.8497C34.5015 25.9573 34.5625 26.0649 34.6512 26.2175C32.7113 27.0141 30.7931 27.8021 28.875 28.59C28.1092 28.2207 27.342 27.8515 26.5747 27.4837Z" fill="#BB6023"/>
<path d="M26.5747 27.4839C27.342 27.8517 28.1092 28.2209 28.8765 28.5887C29.5493 30.3724 30.2264 32.1532 30.8861 33.9412C30.9443 34.0982 30.8948 34.2945 30.8963 34.4718C30.2308 34.4239 29.5667 34.3759 28.9012 34.3265C28.1949 32.3945 27.4829 30.464 26.7912 28.5276C26.6721 28.1962 26.6445 27.8328 26.5747 27.4839Z" fill="#E2BC98"/>
<path d="M13.6494 32.6168C15.5007 31.8682 17.3505 31.121 19.2018 30.3708C19.3021 30.3301 19.4009 30.2836 19.4982 30.2356C19.9008 30.0379 20.158 30.0903 20.2713 30.5904C20.3745 31.0454 20.5576 31.4829 20.7043 31.9278C20.1347 32.1502 19.5535 32.3479 18.9969 32.6008C18.3416 32.9003 17.6847 33.0311 16.9582 32.9381C15.8582 32.7985 14.7523 32.72 13.6494 32.6168Z" fill="#BB6124"/>
<path d="M25.8364 20.221C25.2421 20.4725 24.6478 20.7254 23.9677 21.0118C23.1874 18.8603 22.423 16.7568 21.6602 14.6519C22.1964 15.1592 22.6875 15.7261 23.276 16.1593C24.5214 17.0766 25.107 18.3762 25.5603 19.7791C25.6127 19.939 25.742 20.0742 25.8364 20.221Z" fill="#E2BC99"/>
<path d="M28.9011 34.3281C29.5667 34.3761 30.2307 34.4241 30.8963 34.4735C29.5914 35.0026 28.2705 35.4954 26.9859 36.0726C25.6316 36.6802 24.2075 36.8299 22.7559 36.891C23.6437 36.513 24.5301 36.1307 25.4223 35.76C26.5805 35.2759 27.7415 34.8035 28.9011 34.3281Z" fill="#BC6429"/>
<path d="M34.4422 25.8484C34.0353 25.4501 33.6284 25.0518 33.2216 24.6535C32.511 22.8582 31.8004 21.0643 31.0942 19.269C31.0303 19.1047 31.0085 18.9245 30.9678 18.7515C31.5403 19.5699 32.2233 20.3345 32.6578 21.2213C33.3 22.5282 33.7679 23.9194 34.3027 25.2771C34.3754 25.4574 34.3971 25.658 34.4422 25.8484Z" fill="#E2BC98"/>
<path d="M37.7754 29.5959C38.0195 29.6948 38.2665 29.7878 38.5078 29.891C40.5349 30.7632 43.027 29.9375 44.0078 27.8675C44.0369 27.8079 44.1023 27.7643 44.1502 27.7134C44.0384 29.218 43.0241 30.442 41.5492 30.8519C40.1106 31.2531 38.6037 30.7516 37.7754 29.5959Z" fill="#BE662A"/>
<path d="M38.6926 39.3899C38.8757 38.8099 39.1198 38.2415 39.2302 37.6484C39.5717 35.8153 38.5153 34.0432 37.0796 33.2844C36.9546 33.219 36.8384 33.1346 36.7178 33.0591C38.1288 33.03 39.6778 34.379 39.9873 35.872C40.2503 37.1411 39.9016 38.2212 39.0428 39.1573C38.9512 39.2576 38.8117 39.3129 38.6926 39.3899Z" fill="#E4BE9A"/>
<path d="M44.1416 27.7282C44.1692 27.6512 44.1954 27.5741 44.223 27.4971C44.1968 27.5741 44.1692 27.6512 44.1416 27.7282Z" fill="#BE662A"/>
<path d="M37.5444 29.3604C37.5924 29.4011 37.6418 29.4432 37.6897 29.4839C37.6403 29.4432 37.5924 29.4025 37.5444 29.3604Z" fill="#BE662A"/>
<path d="M37.668 29.4771C37.7101 29.5178 37.7522 29.557 37.7929 29.5977C37.7522 29.557 37.7101 29.5163 37.668 29.4771Z" fill="#BE662A"/>
<path d="M22.5625 36.8735C22.6119 36.875 22.6613 36.8779 22.7122 36.8794C22.6628 36.8779 22.6134 36.8764 22.5625 36.8735Z" fill="#BC6429"/>
</svg>
